<svg width="66" height="13" viewBox="0 0 66 13" fill="none" xmlns="http://www.w3.org/2000/svg">
<path fill-rule="evenodd" clip-rule="evenodd" d="M38.2886 0.396049C40.2671 0.396049 41.7953 0.624591 42.5617 2.09666C42.9213 2.78716 43.0443 3.79688 42.7904 4.64436C42.5194 5.54917 42.0685 5.87073 41.4662 6.305L41.8244 6.54036C43.8664 7.79735 44.0921 12.6652 38.9383 12.6734L33.7365 12.6732C33.6495 11.9942 33.7252 2.98645 33.7148 1.10508C33.7141 0.99256 33.7059 0.817643 33.7137 0.712147L33.7778 0.401899L38.2882 0.396049H38.2886ZM51.4926 5.19134L51.4969 7.80086L47.4502 7.90421C47.4422 7.92039 47.4354 7.94243 47.4317 7.95549C47.3071 8.40692 47.372 9.30023 47.4129 9.72104C47.7205 9.83375 52.0973 9.80509 52.3133 9.70525L52.3984 9.87353L52.389 12.6582L43.9708 12.6697L43.9624 0.414964L52.3831 0.390979L52.4017 3.1563C52.3215 3.25361 52.4808 3.24405 52.1388 3.28695L47.3225 3.29124L47.3308 5.13109C48.1007 5.18413 51.0616 4.99458 51.4926 5.19115V5.19134ZM56.5673 12.6646C56.3692 12.3571 56.5423 4.38891 56.4969 3.22377L53.2579 3.22124C53.1832 2.92288 53.3511 0.851964 53.4046 0.396829L62.9872 0.410284L62.993 3.19667C62.4451 3.26355 59.9311 3.1214 59.7062 3.27116L59.6942 12.664L56.5675 12.6648L56.5673 12.6646ZM32.7782 13H65.0041V0H32.4795C32.4044 0.256818 30.9117 2.78209 30.6367 3.26804L29.2485 5.7081C29.0445 6.06437 28.8501 6.18 29.0367 6.51443C29.3521 7.07896 32.6503 12.6313 32.7784 13H32.7782Z" fill="#FDDD06"/>
<path fill-rule="evenodd" clip-rule="evenodd" d="M9.67638 7.21507C9.45974 4.70325 10.5995 2.51163 12.5655 1.38217C13.1841 1.02688 13.9317 0.740422 14.7886 0.632976C18.2083 0.204362 20.9602 2.81973 21.31 5.79448C21.723 9.30783 19.1322 12.0461 16.1464 12.3672C12.8682 12.7198 9.94081 10.2776 9.67658 7.21507H9.67638ZM8.86069 5.40253L8.86615 8.70352L5.4659 8.70391L5.4737 12.672L2.01612 12.6792L2.00345 0.393319L9.39129 0.395659L9.56114 3.08942L9.66956 3.76705H5.50685L5.49769 5.34481C5.84694 5.35144 8.58008 5.27032 8.86089 5.40253H8.86069ZM19.7941 0.429979L23.6604 0.422959C24.0677 1.00367 24.815 2.69668 25.0903 3.00498C25.3442 2.77176 25.7165 1.94319 25.884 1.63704L26.4296 0.626541C26.5491 0.427249 26.5179 0.427054 26.7802 0.423544L30.3144 0.422959L27.2724 5.75782C27.0762 6.11897 26.9069 6.18312 27.1177 6.54875L30.6473 12.6396L26.7804 12.6472L25.5053 10.3792C25.4247 10.2314 25.3697 10.1302 25.2974 9.99892C25.1738 9.77447 25.1669 9.70759 24.9979 9.59897C24.8183 10.0738 24.0484 11.3799 23.7113 12.0115C23.3585 12.6722 23.496 12.6541 23.1403 12.657L19.5934 12.6488L23.067 6.55207C23.2637 6.17747 23.043 6.09654 22.8493 5.75217L19.7941 0.430174V0.429979ZM0.000195002 13H32.7749C32.647 12.6313 29.3488 7.07896 29.0332 6.51443C28.8466 6.18 29.041 6.06437 29.245 5.7081L30.6332 3.26804C30.9082 2.78229 32.4009 0.256818 32.476 0H0V13H0.000195002Z" fill="#1A2E51"/>
<path fill-rule="evenodd" clip-rule="evenodd" d="M15.2532 3.07658C15.9418 2.86267 16.4622 3.44494 16.526 4.02897L16.5379 8.45045C16.5394 9.2521 16.4688 9.77003 15.784 9.96054C15.0699 10.1593 14.5251 9.60466 14.5042 8.97071L14.5056 4.55002C14.5023 3.76689 14.6144 3.2751 15.253 3.07658H15.2532ZM9.67498 7.2155C9.93921 10.2782 12.8666 12.7202 16.1448 12.3676C19.1306 12.0465 21.7214 9.30826 21.3084 5.79491C20.9588 2.82016 18.2069 0.204791 14.787 0.633406C13.9301 0.740852 13.1827 1.02731 12.5639 1.3826C10.5981 2.51186 9.45814 4.70368 9.67478 7.2155H9.67498Z" fill="#FEFDFE"/>
<path fill-rule="evenodd" clip-rule="evenodd" d="M38.997 10.1823L36.9191 10.2816L36.9072 7.52327C37.2054 7.51527 38.7264 7.44059 38.9963 7.63149C40.2757 7.6428 40.2924 10.1878 38.9969 10.1823H38.997ZM38.6273 5.26827C38.2833 5.41471 37.3731 5.33476 36.9244 5.31936L36.9099 2.81358C37.2962 2.8013 38.5097 2.71745 38.7199 2.88885C40.107 2.81163 40.1167 5.37006 38.6273 5.26827ZM33.7741 0.402579L33.71 0.712827C33.702 0.818323 33.7103 0.993239 33.7111 1.10576C33.7215 2.98713 33.6458 11.9949 33.7328 12.6739L38.9346 12.674C44.0884 12.6659 43.8625 7.79783 41.8207 6.54104L41.4625 6.30568C42.0648 5.87141 42.5155 5.54985 42.7867 4.64504C43.0406 3.79737 42.9176 2.78784 42.558 2.09734C41.7914 0.625271 40.2634 0.396729 38.2849 0.396729L33.7745 0.402579H33.7741Z" fill="#1A2E51"/>
<path fill-rule="evenodd" clip-rule="evenodd" d="M52.3938 9.87294L47.2628 9.86319L47.2645 7.80202L51.4924 7.80027L51.4881 5.19075L47.2534 5.19953C47.2033 4.81167 47.1778 3.54513 47.2754 3.20271C48.2165 3.16312 51.858 3.28656 52.3972 3.1561L52.3786 0.390778L43.9579 0.414763L43.9663 12.6695L52.3845 12.658L52.3938 9.87333V9.87294Z" fill="#1A2E51"/>
<path fill-rule="evenodd" clip-rule="evenodd" d="M19.7993 0.429731L22.8546 5.75172C23.0482 6.0959 23.2692 6.17702 23.0722 6.55162L19.5986 12.6484L23.1455 12.6565C23.5012 12.6536 23.3637 12.6718 23.7165 12.0111C24.0536 11.3795 24.8235 10.0734 25.0031 9.59852C25.1722 9.70714 25.179 9.77402 25.3026 9.99847C25.3748 10.1297 25.4298 10.2311 25.5105 10.3787L26.7856 12.6468L30.6525 12.6392L27.123 6.5483C26.9124 6.18268 27.0814 6.11852 27.2776 5.75738L30.3196 0.422516L26.7854 0.423101C26.5232 0.426611 26.5544 0.426806 26.4348 0.626098L25.8892 1.6366C25.7215 1.94275 25.3492 2.77131 25.0955 3.00454C24.82 2.69624 24.073 1.00323 23.6656 0.422516L19.7993 0.429536V0.429731Z" fill="#FEFDFE"/>
<path fill-rule="evenodd" clip-rule="evenodd" d="M8.85675 5.40236C8.2386 5.40177 5.89253 5.49635 5.48459 5.36628C5.38786 5.15334 5.3824 3.95271 5.49395 3.71345L9.5999 3.72573L9.5572 3.08886L9.38735 0.395101L1.99951 0.392761L2.01219 12.6787L5.46977 12.6714L5.46196 8.70335L8.86221 8.70296L8.85675 5.40197V5.40236Z" fill="#FEFDFE"/>
<path fill-rule="evenodd" clip-rule="evenodd" d="M56.5696 12.6647C56.4725 11.3568 56.5747 5.01145 56.5914 3.26462L56.6107 12.5806C57.0296 12.629 57.6563 12.5933 58.1162 12.5933C58.5756 12.5933 59.215 12.6953 59.6118 12.5136L59.645 3.7687C59.6352 3.45923 59.5252 3.39293 59.7085 3.27106C59.9334 3.12129 62.4473 3.26345 62.9953 3.19657L62.9895 0.410184L53.4069 0.396729C53.3534 0.851863 53.1857 2.92278 53.2602 3.22114L56.4992 3.22367C56.5446 4.38881 56.3717 12.357 56.5696 12.6645V12.6647Z" fill="#1A2E51"/>
<path fill-rule="evenodd" clip-rule="evenodd" d="M15.2533 3.07629C14.6147 3.2748 14.5026 3.7666 14.5059 4.54973L14.5045 8.97042C14.5256 9.60456 15.0704 10.159 15.7843 9.96025C16.4692 9.76973 16.5397 9.25181 16.5382 8.45015L16.5263 4.02868C16.4623 3.44465 15.9421 2.86238 15.2535 3.07629H15.2533Z" fill="#1A2E51"/>
<path fill-rule="evenodd" clip-rule="evenodd" d="M39.0007 10.182C40.2962 10.1872 40.2795 7.64244 39.0001 7.63113L37.0372 7.63211C36.9487 7.99228 36.9621 9.82237 37.0348 10.1972C37.2133 10.1574 38.7772 10.1595 39.0007 10.182Z" fill="#FDDD06"/>
<path fill-rule="evenodd" clip-rule="evenodd" d="M38.6236 5.26736C40.113 5.36915 40.1033 2.81072 38.7162 2.88794L37.0454 2.92655C36.9429 3.51078 36.9836 4.23697 36.9827 4.87872C36.9817 5.52183 37.1763 5.18936 38.6236 5.26736Z" fill="#FDDD06"/>
<path fill-rule="evenodd" clip-rule="evenodd" d="M56.5679 12.6652L59.6946 12.6644L59.7067 3.27154C59.5234 3.39342 59.6333 3.45972 59.6431 3.76919L59.6099 12.514C59.2133 12.6956 58.5737 12.5936 58.1143 12.5938C57.6545 12.5938 57.0279 12.6295 56.6089 12.5811L56.5895 3.26511C56.5728 5.01193 56.4706 11.3573 56.5677 12.6652H56.5679Z" fill="#06151C"/>
<path fill-rule="evenodd" clip-rule="evenodd" d="M51.4901 5.19085C51.0593 4.99429 48.0984 5.18383 47.3283 5.13079L47.3199 3.29095L52.1363 3.28666C52.4785 3.24376 52.3192 3.25351 52.3992 3.15601C51.86 3.28646 48.2183 3.16322 47.2774 3.20261C47.1799 3.54503 47.2053 4.81157 47.2554 5.19943L51.4901 5.19065V5.19085Z" fill="#A5A638"/>
<path fill-rule="evenodd" clip-rule="evenodd" d="M52.3897 9.8744L52.3047 9.70612C52.0888 9.80596 47.7119 9.83443 47.4043 9.72191C47.3636 9.3011 47.2984 8.4076 47.4231 7.95636C47.4268 7.9433 47.4336 7.92146 47.4416 7.90508L51.4882 7.80173L47.2604 7.80348L47.2587 9.86465L52.3897 9.8744Z" fill="#EEE932"/>
<path fill-rule="evenodd" clip-rule="evenodd" d="M8.85716 5.40168C8.57636 5.26947 5.84322 5.35059 5.49397 5.34396L5.50313 3.76619H9.66584L9.55742 3.08856L9.60012 3.72544L5.49416 3.71315C5.38262 3.95223 5.38808 5.15285 5.4848 5.36599C5.89275 5.49606 8.23901 5.40129 8.85697 5.40207L8.85716 5.40168Z" fill="#ABB5C3"/>
<path fill-rule="evenodd" clip-rule="evenodd" d="M39.0015 10.1823C38.778 10.1598 37.2141 10.1575 37.0357 10.1975C36.9628 9.82269 36.9495 7.9926 37.038 7.63243L39.0009 7.63146C38.731 7.44055 37.21 7.51524 36.9119 7.52323L36.9238 10.2815L39.0017 10.1823H39.0015Z" fill="#EEE932"/>
<path fill-rule="evenodd" clip-rule="evenodd" d="M38.6293 5.26692C37.1819 5.18892 36.9873 5.5212 36.9883 4.87828C36.9893 4.23653 36.9485 3.51034 37.0511 2.92612L38.7219 2.88751C38.5117 2.7163 37.298 2.80015 36.9119 2.81224L36.9263 5.31801C37.375 5.33341 38.2853 5.41336 38.6293 5.26692Z" fill="#EEE932"/>
</svg>
