<svg width="90" height="40" viewBox="0 0 90 40" fill="none" xmlns="http://www.w3.org/2000/svg">
<path fill-rule="evenodd" clip-rule="evenodd" d="M21.3337 15.233L21.3517 4.14135C21.3517 2.95296 20.8578 1.8366 19.96 1.04434C19.1788 0.342111 18.1463 0 17.1048 0H16.4044C14.1329 0 12.2833 1.8456 12.2833 4.12334L12.2743 9.97524C11.9959 10.0023 11.7266 10.0563 11.4482 10.1373L10.5953 10.3984C10.29 10.4884 10.0117 10.6145 9.74231 10.7765C8.97015 10.5424 8.13513 10.5424 7.34502 10.7855L6.50102 11.0466C5.45052 11.3707 4.59756 12.0909 4.09475 13.0182C3.97803 13.0452 3.87029 13.0722 3.75356 13.1083L3.04425 13.3243C2.04763 13.6304 1.14976 14.2606 0.611045 15.1519C-0.0174584 16.1783 -0.161116 17.3937 0.180071 18.528L1.18568 21.7961V22.2462C1.18568 24.8661 2.09252 27.4319 3.74459 29.4576C3.78948 29.5116 3.84335 29.6376 3.84335 29.8177V33.6529C3.84335 35.0394 4.96568 36.1648 6.34839 36.1648H7.62335V38.3975V39.3158C7.62335 39.6939 7.92863 40 8.30573 40H16.6558C17.033 40 17.3382 39.6939 17.3382 39.3158V39.1987V36.1648H18.5144C19.8971 36.1648 21.0195 35.0394 21.0195 33.6529V29.6917C22.8062 27.675 23.8208 24.9471 23.8298 22.0842V20.1576C23.8388 18.1859 22.887 16.3583 21.3337 15.233ZM15.74 38.3885H9.22155V36.1558H15.74V38.3885ZM22.0071 22.0662C21.9981 24.749 20.9746 27.2339 19.1968 28.9444V33.6439C19.1968 34.0221 18.8915 34.3282 18.5144 34.3282H6.34839C5.97128 34.3282 5.66601 34.0221 5.66601 33.6439V29.8087C5.66601 29.2325 5.48644 28.6923 5.15423 28.2962C3.76254 26.5946 2.99936 24.4519 3.00834 22.2462V21.526L1.9309 17.9878C1.56278 16.7724 2.23618 15.485 3.44829 15.1159L4.30126 14.8548C4.67836 14.7378 5.06444 14.7288 5.43257 14.8098C5.5044 13.9005 6.11494 13.0813 7.03974 12.7932L7.89271 12.5321C8.47632 12.352 9.09585 12.406 9.64354 12.6941C9.77822 12.7661 9.89494 12.8472 10.0117 12.9372C10.299 12.5681 10.6851 12.289 11.143 12.1449L11.987 11.8839C12.5706 11.7038 13.1901 11.7578 13.7378 12.0459C13.8635 12.1179 13.9892 12.199 14.0969 12.28L14.1059 4.19536C14.1059 3.67319 14.2496 3.14202 14.5728 2.72789C15.0217 2.1427 15.6951 1.80959 16.4044 1.81859H17.2484C18.5144 1.81859 19.538 2.85393 19.538 4.12334L19.52 16.2593C20.3371 16.6284 21.0464 17.2496 21.5223 18.1139C21.8724 18.7531 22.0251 19.4913 22.0251 20.2206L22.0071 22.0662ZM17.7962 15.8992H15.4438L15.4617 4.12335C15.4617 3.87126 15.5605 3.64619 15.7311 3.46613C15.9017 3.29508 16.1351 3.19604 16.3865 3.19604H17.2305C17.7423 3.19604 18.1553 3.61018 18.1553 4.12335L18.1373 15.9082C18.0846 15.9082 18.0296 15.906 17.9736 15.9038H17.9736H17.9736C17.9152 15.9015 17.8557 15.8992 17.7962 15.8992ZM11.4483 16.3403C11.7895 16.0702 12.2025 15.8992 12.6694 15.8992L14.079 15.9082V15.5841L13.5403 13.8195C13.4685 13.5764 13.3068 13.3873 13.0914 13.2703C12.8669 13.1623 12.6155 13.1353 12.382 13.2073L11.5291 13.4684C11.2867 13.5404 11.0981 13.7024 10.9814 13.9185C10.8736 14.1436 10.8467 14.3957 10.9185 14.6297L11.4393 16.3133L11.4483 16.3403ZM10.9724 20.3556C10.8557 20.5717 10.6671 20.7338 10.4247 20.8058L9.57173 21.0669C9.08688 21.2199 8.56612 20.9408 8.41348 20.4547L6.81529 15.26C6.66265 14.7738 6.94099 14.2517 7.42583 14.0986L8.2788 13.8375C8.36859 13.8105 8.45838 13.7925 8.54816 13.7925C8.7008 13.7925 8.84446 13.8285 8.97914 13.9005C9.19462 14.0176 9.35624 14.2066 9.42807 14.4497L11.0263 19.6444C11.1071 19.8875 11.0891 20.1396 10.9724 20.3556ZM6.38433 24.7041L7.2373 24.443C8.1621 24.1549 8.77265 23.3446 8.84447 22.4353C8.99711 22.4623 9.14975 22.4893 9.30238 22.4893C9.52685 22.4893 9.75132 22.4533 9.97578 22.3903L10.8288 22.1292C11.4842 21.9312 11.969 21.454 12.2294 20.8778C12.6424 21.1119 13.1183 21.2379 13.657 21.2379H15.5874V22.8585C15.5874 23.1916 15.3181 23.4617 14.9859 23.4617H14.4292C12.3821 23.4617 10.712 25.1362 10.712 27.1889V27.4409C10.712 27.8191 11.0173 28.1252 11.3944 28.1252C11.7715 28.1252 12.0768 27.8191 12.0768 27.4409V27.1889C12.0768 25.8924 13.1273 24.8301 14.4292 24.8301H14.9859C16.0723 24.8301 16.9611 23.9388 16.9611 22.8495V21.0039C16.9611 20.3646 16.4494 19.8515 15.8119 19.8515H13.666C12.2025 19.8515 12.0858 18.312 12.0858 17.8348C12.0858 17.5197 12.3461 17.2586 12.6604 17.2586L17.7962 17.2676C18.5593 17.2676 19.2776 17.5647 19.8164 18.1139C20.3551 18.6541 20.6514 19.3743 20.6514 20.1396V22.0662C20.6424 24.479 19.6996 26.7027 18.0745 28.1522C16.8355 29.2595 15.5874 29.8267 15.5695 29.8267C15.2283 29.9798 15.0667 30.3849 15.2283 30.736C15.345 30.9881 15.5874 31.1411 15.8568 31.1411C15.9466 31.1411 16.0453 31.1231 16.1351 31.0781C16.18 31.0601 16.9163 30.727 17.85 30.0698V32.9507H7.03977V29.7997C7.03977 28.9084 6.75246 28.0621 6.22272 27.4139C5.53136 26.5677 5.02856 25.5953 4.72329 24.56C5.02856 24.7041 5.36975 24.7941 5.71991 24.7941C5.9354 24.8031 6.15987 24.7671 6.38433 24.7041ZM4.69634 16.1602L3.84337 16.4213C3.35853 16.5744 3.08019 17.0965 3.2418 17.5827L4.83102 22.7774C4.98366 23.2635 5.50442 23.5426 5.98926 23.3896L6.84223 23.1285C7.32708 22.9754 7.60541 22.4533 7.45278 21.9671L5.85458 16.7724C5.70195 16.2863 5.18119 16.0072 4.69634 16.1602ZM56.6108 33.95C57.7061 34.5172 58.9721 34.8053 60.3997 34.8053C62.1955 34.8053 63.7757 34.3912 65.1404 33.5809C66.4962 32.7527 67.5647 31.6183 68.3368 30.1688C69.118 28.7193 69.5041 27.0718 69.5041 25.2172C69.5041 23.3626 69.109 21.7061 68.3368 20.2476C67.5647 18.7891 66.4962 17.6367 65.1404 16.7995C63.7847 15.9622 62.2224 15.5391 60.4446 15.5391C58.8195 15.5391 57.4817 15.8722 56.4491 16.5384C55.5333 17.1236 54.7881 17.7898 54.2224 18.537C54.1506 18.6271 54.007 18.582 54.007 18.465V8.21968C54.007 7.92258 53.7645 7.6795 53.4682 7.6795H50.631C50.3347 7.6795 50.0923 7.92258 50.0923 8.21968V33.815C50.0923 34.1121 50.3347 34.3552 50.631 34.3552H53.1091C53.3964 34.3552 53.6299 34.1391 53.6747 33.86L53.9621 31.8524C53.971 31.7443 54.1147 31.7173 54.1776 31.8073C54.7971 32.7166 55.6141 33.4279 56.6108 33.95ZM63.8745 29.6827C62.7881 30.826 61.4143 31.4022 59.7353 31.4022C58.0563 31.4022 56.6826 30.826 55.6141 29.6827C54.5457 28.5393 54.007 27.0358 54.007 25.1812C54.007 23.3536 54.5457 21.8591 55.6141 20.6977C56.6826 19.5364 58.0563 18.9512 59.7353 18.9512C60.8756 18.9512 61.8722 19.2213 62.7342 19.7524C63.5961 20.2836 64.2695 21.0218 64.7633 21.9581C65.2572 22.8945 65.4996 23.9748 65.4996 25.1812C65.4996 27.0358 64.9609 28.5303 63.8745 29.6827ZM39.0665 15.5391C41.6344 15.5391 43.6187 16.2053 45.0193 17.5557C46.429 18.8972 47.1293 20.7338 47.1293 23.0565V33.815C47.1293 34.1121 46.8869 34.3552 46.5906 34.3552H44.2472C43.9509 34.3552 43.6995 34.1301 43.6725 33.842L43.4301 31.5913C43.4122 31.4742 43.2595 31.4382 43.2057 31.5373C42.7029 32.4015 42.0115 33.1488 41.1316 33.761C40.144 34.4542 38.851 34.7963 37.2528 34.7963C35.6995 34.7963 34.4246 34.5442 33.41 34.0221C32.4044 33.4999 31.6502 32.8157 31.1563 31.9604C30.6625 31.1051 30.4201 30.1778 30.4201 29.1605C30.4201 27.3869 31.1115 25.9735 32.4942 24.9381C33.8769 23.9028 35.8432 23.3806 38.4111 23.3806H41.6883C42.3617 23.3806 43.4301 22.4623 42.8375 20.9408L42.8016 20.8688C42.6131 20.4637 42.3617 20.1125 42.0474 19.8245C41.2663 19.1132 40.2607 18.7531 39.0306 18.7531C37.9442 18.7531 37.0014 19.0232 36.2023 19.5544C35.5289 19.9955 34.9543 20.6257 34.5682 21.355C34.4335 21.607 34.1372 21.7151 33.8769 21.607L31.5963 20.6347C31.3269 20.5177 31.1923 20.2026 31.309 19.9235C31.5245 19.4013 31.8118 18.9242 32.1709 18.483C32.9431 17.5287 33.9307 16.7995 35.1249 16.2953C36.328 15.7911 37.6389 15.5391 39.0665 15.5391ZM40.7186 30.862C41.4459 30.3579 42.0115 29.6827 42.4155 28.8454C42.7926 28.0621 43.062 26.9638 43.1249 25.7934C43.1338 25.6944 43.0171 25.6313 42.9363 25.6854C42.7118 25.8474 42.2988 26.0635 41.6973 26.0635H38.8151C37.2708 26.0635 36.1664 26.3426 35.511 26.8828C34.8555 27.4229 34.5323 28.0981 34.5323 28.9174C34.5323 29.7547 34.8466 30.4119 35.4751 30.8981C36.1036 31.3752 36.9565 31.6183 38.043 31.6183C39.0935 31.6183 39.9913 31.3662 40.7186 30.862ZM86.5993 28.1882C86.339 28.0711 86.0427 28.1792 85.908 28.4222C85.6027 28.9984 84.9293 30.0068 83.7172 30.772C82.954 31.2582 81.9484 31.5463 80.8441 31.5463C79.4613 31.5463 78.2492 31.0871 77.1987 30.1598C76.1931 29.2685 75.6095 27.9811 75.4569 26.3066C75.4479 26.1985 75.5377 26.0995 75.6454 26.0995H89.2032C89.4905 26.0995 89.7239 25.8744 89.7419 25.5863L89.7435 25.5591C89.7519 25.4162 89.7598 25.2812 89.7598 25.1542L89.7622 25.078C89.7703 24.8197 89.7778 24.5826 89.7778 24.3529C89.7778 22.7504 89.4097 21.2739 88.6644 19.9415C87.9282 18.6091 86.8867 17.5377 85.5578 16.7365C84.229 15.9352 82.6577 15.5301 80.862 15.5301C79.0124 15.5301 77.3963 15.9352 76.0046 16.7545C74.6129 17.5737 73.5265 18.7081 72.7543 20.1666C71.9821 21.625 71.5871 23.3176 71.5871 25.2442C71.5871 27.1438 71.9821 28.8184 72.7723 30.2498C73.5624 31.6813 74.6488 32.7977 76.0405 33.6079C77.4322 34.4092 79.0304 34.8143 80.8261 34.8143C82.9989 34.8143 84.8036 34.2291 86.2761 33.0678C87.2548 32.3025 88.1526 31.2852 88.9428 29.8807C89.1044 29.6016 88.9877 29.2415 88.6914 29.1155L86.5993 28.1882ZM77.3693 19.9235C78.3839 19.1492 79.5422 18.7531 80.8441 18.7531C82.2447 18.7531 83.4209 19.1762 84.3547 20.0135C85.2436 20.8148 85.7464 21.8861 85.8541 23.2186C85.8631 23.3266 85.7733 23.4256 85.6656 23.4256H75.7352C75.6185 23.4256 75.5287 23.3176 75.5467 23.2096C75.7981 21.7601 76.3996 20.6707 77.3693 19.9235Z" fill="#0C40FC"/>
</svg>
