<svg width="66" height="13" viewBox="0 0 66 13" fill="none" xmlns="http://www.w3.org/2000/svg">
<path fill-rule="evenodd" clip-rule="evenodd" d="M50.0134 12.8412L55.7728 12.8357L56.1508 10.6693L52.9351 10.6626L53.5867 7.50631L56.3403 7.51165L56.8029 5.23158L54.0702 5.22994L54.6495 2.29857L59.9724 2.29638L57.8857 12.8276L60.4263 12.8357L62.5129 2.30446L64.6259 2.29638L65.004 0.13002L52.5947 0.123444L50.0134 12.8412Z" fill="black"/>
<path fill-rule="evenodd" clip-rule="evenodd" d="M19.34 12.8356H21.837L23.0856 6.64242L24.3228 12.8378L26.2636 12.8356L26.8781 9.72968C27.1731 8.33106 28.7622 0.927241 28.7607 0.123332H26.3771C26.0323 0.839288 25.4338 5.74494 25.1285 6.20786L23.8889 0.121552L21.837 0.123332C21.821 0.8497 19.3407 11.9714 19.34 12.8356Z" fill="#EB1A41"/>
<path fill-rule="evenodd" clip-rule="evenodd" d="M44.6702 7.28493C46.8411 7.35905 48.0501 6.69392 47.2173 9.53391C46.8716 10.7131 46.0561 10.6625 45.1047 10.6625C45.1051 10.1588 45.3292 9.19963 45.4391 8.69479C45.6781 7.59606 45.221 7.84841 44.6702 7.28493ZM46.1262 5.12118L46.7403 2.30489C48.0807 2.29626 48.5891 2.3227 48.2579 3.79448C47.9462 5.17995 47.5388 5.12118 46.1262 5.12118ZM42.11 12.8274L46.3532 12.8354C47.4839 12.8354 48.5692 12.2861 49.0794 11.3164C49.6159 10.2967 49.9853 8.86247 49.9853 7.72881C49.9853 7.01162 49.6726 6.7405 49.3042 6.20771C49.6914 5.6878 50.0408 5.80809 50.442 4.9065C51.1045 3.41746 51.4159 0.643785 48.9009 0.183332C47.8864 -0.00243841 45.793 0.123189 44.6507 0.123189L42.1101 12.8274H42.11Z" fill="black"/>
<path fill-rule="evenodd" clip-rule="evenodd" d="M11.3088 10.7435C10.4637 10.0319 11.3004 6.90009 11.5146 5.88959C11.6711 5.15157 11.8683 4.23601 12.0953 3.51184C12.3806 2.60175 12.6558 2.0928 13.7475 2.21583C14.7585 2.6471 13.2678 8.48612 12.9414 9.42854C12.6301 10.3271 12.4206 10.8688 11.3088 10.7435ZM12.6417 0.123447C12.0416 0.27168 11.7843 0.106459 10.9084 0.963112C10.4012 1.45905 10.1135 1.99526 9.90316 2.60847C9.43189 3.98174 9.15424 5.36379 8.84912 6.81474C8.59882 8.00485 8.13412 10.274 8.66493 11.4273C9.30938 12.8275 10.8819 13.2266 12.4661 12.8847C15.2674 12.2802 15.6916 8.73765 16.2092 6.14591C16.6107 4.13573 17.4555 0.0131633 13.8935 0.0117933C12.9119 0.0113823 13.3562 -0.0530071 12.6418 0.123447H12.6417Z" fill="#EB1A41"/>
<path fill-rule="evenodd" clip-rule="evenodd" d="M37.3863 9.14182C36.6805 9.14182 35.5968 9.01085 34.9638 9.21319C34.3602 10.9444 35.1834 12.9464 37.6102 12.9476C39.6458 12.9486 41.1136 12.5919 41.7231 10.2511C43.3296 4.08218 38.6442 6.25881 38.6263 3.9286C38.6208 3.21881 39.0974 1.50098 40.1849 2.33394C40.4613 2.65205 40.3374 3.27389 40.3374 3.70913H42.8344C42.8344 1.55619 43.2237 0.00605387 39.5396 0.0113968C37.2372 0.0148218 36.3923 1.89033 36.1241 3.80476C35.9781 4.84663 35.8956 5.69013 36.7881 6.45486C38.162 7.63223 39.8465 7.13944 39.4782 9.07976C39.3895 9.54774 39.3679 9.96902 39.0495 10.4081C38.7544 10.8147 38.0985 10.8764 37.7191 10.6707C37.2146 10.3973 37.3862 9.62186 37.3862 9.14195L37.3863 9.14182Z" fill="#EB1A41"/>
<path fill-rule="evenodd" clip-rule="evenodd" d="M3.90274 6.09932L4.62848 2.30487C6.43946 2.29651 6.5767 2.56394 6.16797 4.3593C5.84324 5.78615 5.49676 6.09946 3.90274 6.09946V6.09932ZM0 12.8277L2.54072 12.8358C2.54129 12.1244 2.88133 11.0028 3.00742 10.2404C3.2301 8.89341 3.47383 9.11302 2.32333 8.30035C5.33074 8.00306 7.62559 9.21947 8.6991 4.17162C8.97731 2.86355 9.01495 1.17806 7.65035 0.447444C6.62508 -0.101373 3.87097 0.123442 2.54072 0.123442L0 12.8276L0 12.8277Z" fill="#EB1A41"/>
<path fill-rule="evenodd" clip-rule="evenodd" d="M29.3269 2.29638H31.2565C31.2559 2.94425 30.9339 4.22026 30.7934 4.89539L29.2134 12.8357H31.7104C31.7311 11.9059 33.7526 3.27031 33.7536 2.29638H35.9102L36.2851 0.129198L29.6675 0.123444C29.6515 0.854743 29.3254 1.47946 29.327 2.29638H29.3269Z" fill="#EB1A41"/>
<path fill-rule="evenodd" clip-rule="evenodd" d="M15.7394 12.8422L18.2041 12.8362L20.8124 0.123413L18.3175 0.123961L15.7394 12.8422Z" fill="#EB1A41"/>
</svg>
