<svg width="70" height="70" viewBox="0 0 70 70" fill="none" xmlns="http://www.w3.org/2000/svg">
<path d="M34.9854 18.4854C34.9854 18.4854 20.2343 18.4854 16.532 19.4474C14.5496 20.0013 12.9173 21.6336 12.3634 23.6451C11.4014 27.3474 11.4014 35.0147 11.4014 35.0147C11.4014 35.0147 11.4014 42.711 12.3634 46.355C12.9173 48.3665 14.5205 49.9697 16.532 50.5236C20.2634 51.5147 34.9854 51.5148 34.9854 51.5148C34.9854 51.5148 49.7657 51.5148 53.4679 50.5527C55.4794 49.9989 57.0826 48.4248 57.6073 46.3842C58.5985 42.711 58.5985 35.0438 58.5985 35.0438C58.5985 35.0438 58.6276 27.3474 57.6073 23.6451C57.0826 21.6336 55.4794 20.0305 53.4679 19.5057C49.7657 18.4854 34.9854 18.4854 34.9854 18.4854ZM30.2918 27.9308L42.565 35.0147L30.2918 42.0693V27.9308Z" fill="#FF0000"/>
</svg>
